<svg width="86" height="65" viewBox="0 0 86 65" fill="none" xmlns="http://www.w3.org/2000/svg">
<path d="M63.3192 20.8002C63.3192 13.9859 63.3198 7.1712 63.3181 0.356452C63.3181 -0.0541149 63.3768 0.00266553 62.9545 0.00266553C49.4335 0.00157359 35.9131 0.00157359 22.3926 0.00157359C22.1506 0.00157359 22.0296 0.120594 22.0296 0.358635C22.0296 13.9969 22.029 27.6351 22.0301 41.2733C22.0301 41.673 21.9715 41.6331 22.3937 41.6331C35.9234 41.6342 49.4531 41.6331 62.9828 41.6397C63.2536 41.6397 63.3263 41.5791 63.3263 41.2985C63.3176 34.4657 63.3192 27.6329 63.3192 20.8002ZM59.8899 18.7255C59.8904 18.9859 59.8492 19.0787 59.5583 19.0776C55.4348 19.0667 51.3113 19.07 47.1878 19.07H46.904C51.2511 14.7235 55.5835 10.3913 59.8844 6.09128V6.7448C59.8844 10.7385 59.8817 14.7323 59.8899 18.7255ZM42.8375 18.1981C42.7213 18.3155 42.66 18.346 42.5233 18.2079C40.5815 16.2392 38.6321 14.2786 36.6854 12.3142C36.6506 12.2787 36.5915 12.2569 36.5931 12.1597H48.741C48.7704 12.2509 48.7003 12.2787 48.6586 12.3202C46.7178 14.2791 44.7755 16.2364 42.8375 18.1981ZM42.8543 23.441C44.7771 25.389 46.7054 27.3315 48.6325 29.2757C48.683 29.3271 48.7318 29.38 48.8073 29.4603H36.5985C36.5801 29.4417 36.5616 29.4231 36.5437 29.4046C37.0663 28.893 37.5944 28.3869 38.1105 27.8688C39.5758 26.3974 41.0384 24.9238 42.495 23.4437C42.6378 23.2985 42.7143 23.299 42.8543 23.441ZM57.3668 3.47992C57.3896 3.50722 57.4124 3.53452 57.4352 3.56236C57.1579 3.81405 56.8697 4.05483 56.6054 4.31962C55.2139 5.71293 53.8268 7.1106 52.4434 8.51264C52.3256 8.63111 52.2117 8.6797 52.0445 8.6797C45.7974 8.67534 39.5503 8.67588 33.3032 8.67752C33.1637 8.67752 33.0498 8.66333 32.9396 8.5514C31.3299 6.91842 29.7148 5.29089 28.1014 3.66173C28.058 3.61751 28.0004 3.58257 27.9874 3.47992H57.3668ZM25.4834 6.20047V6.07654C29.7876 10.3744 34.1167 14.6979 38.4497 19.0252C38.364 19.0973 38.2804 19.0683 38.2044 19.0683C34.0538 19.07 29.9026 19.0683 25.752 19.0744C25.5485 19.0744 25.4779 19.034 25.4779 18.8101C25.4855 14.6067 25.4834 10.4039 25.4834 6.20047ZM25.4796 22.8344C25.479 22.6253 25.504 22.5407 25.7482 22.5412C29.9064 22.55 34.0652 22.5478 38.2239 22.5478H38.5078C34.1395 26.9128 29.8076 31.2412 25.4834 35.562V35.3583C25.4834 31.1833 25.485 27.0089 25.4796 22.8344ZM57.3733 38.146H27.9315C28.2636 37.8064 28.5616 37.4985 28.8633 37.1944C30.2011 35.8453 31.5416 34.499 32.8761 33.1466C33.014 33.0069 33.1534 32.9506 33.351 32.9506C39.5726 32.9555 45.7936 32.955 52.0152 32.9544C52.1498 32.9544 52.2795 32.9452 52.3913 33.0571C54.0672 34.7294 55.7458 36.399 57.4238 38.0691C57.407 38.0947 57.3902 38.1204 57.3733 38.146ZM59.8844 35.3764V35.5937C55.5493 31.2603 51.2153 26.9275 46.8334 22.5478H47.1802C51.3124 22.5478 55.4446 22.5494 59.5767 22.5423C59.8172 22.5418 59.891 22.5942 59.8904 22.8508C59.8817 27.0258 59.8844 31.2014 59.8844 35.3764Z" fill="white"/>
<path d="M25.7678 64.5134V62.9852C25.7678 62.614 25.5853 62.4467 25.2202 62.4835C24.6406 62.5419 24.5272 62.4425 24.5141 61.8638C24.5114 61.7552 24.512 61.646 24.512 61.5368V58.5896C24.512 57.5529 24.5147 56.5161 24.5109 55.4793C24.5049 53.7535 23.7511 52.6206 22.1371 52.0206C20.4319 51.3862 18.6822 51.3747 16.9418 51.8486C14.8789 52.4104 13.9151 53.9353 13.7137 55.8904C13.6953 56.0689 13.7306 56.1246 13.9173 56.1213C14.6222 56.1104 15.3278 56.1181 16.0327 56.1164C16.2216 56.1159 16.449 56.1688 16.5879 56.0826C16.7176 56.0018 16.6758 55.7512 16.7144 55.5765C16.8956 54.7553 17.3227 54.1679 18.1922 54.0019C18.8103 53.884 19.4317 53.8638 20.0515 53.9784C21.1689 54.1848 21.5803 54.7056 21.5374 55.8412C21.5179 56.3566 21.3865 56.5341 20.8883 56.6706C20.2772 56.8376 19.6477 56.9081 19.022 56.9938C17.8247 57.157 16.6118 57.2564 15.477 57.715C14.4149 58.1447 13.6052 58.8282 13.3311 60.0146C13.2758 60.2543 13.2258 60.4934 13.2052 60.738C13.0592 62.484 13.8125 63.986 15.5557 64.6717C16.0816 64.8786 16.634 64.972 17.1974 64.9884C18.7756 65.0342 20.2756 64.7836 21.57 63.7856C21.6899 63.6933 21.7311 63.6977 21.7881 63.844C22.0264 64.4539 22.492 64.7896 23.1167 64.9223C23.9834 65.1068 24.8213 64.9174 25.6598 64.7241C25.7868 64.6946 25.7678 64.6024 25.7678 64.5134ZM21.4403 60.8046C21.3437 61.4172 21.0349 61.8671 20.5084 62.1635C19.5598 62.6991 18.5438 62.8176 17.4975 62.5615C16.748 62.3776 16.3665 61.8512 16.3394 61.0803C16.3111 60.3012 16.6965 59.7258 17.4112 59.4676C18.1493 59.2006 18.9243 59.1274 19.6922 59.0281C20.3109 58.9478 20.9198 58.8424 21.5298 58.5787C21.5152 59.3551 21.5542 60.0807 21.4403 60.8046Z" fill="white"/>
<path d="M10.4875 56.4501C10.0533 56.4501 9.61971 56.4441 9.18555 56.4534C9.03304 56.4566 8.96901 56.4179 8.93644 56.2546C8.82627 55.7048 8.62276 55.1933 8.23201 54.7772C7.21498 53.6946 5.24115 53.7776 4.20241 54.9465C3.59404 55.6311 3.32214 56.4588 3.22771 57.352C3.11537 58.4188 3.13817 59.4791 3.52077 60.4979C4.17691 62.2466 5.65958 62.75 7.15962 62.3383C8.23472 62.043 8.74378 61.2027 8.99451 60.1736C9.12585 59.6347 9.11879 59.6331 9.66258 59.6331C10.4039 59.6331 11.1453 59.6369 11.8866 59.6303C12.0559 59.6287 12.1232 59.6544 12.0999 59.8542C11.7574 62.7931 9.70112 64.5899 7.34848 64.918C6.23105 65.0736 5.12827 65.0223 4.05588 64.6625C2.39737 64.1062 1.21861 62.9919 0.590701 61.3676C-0.257007 59.175 -0.197851 56.9589 0.803985 54.8318C1.73853 52.8478 3.38021 51.8094 5.54073 51.5877C6.60498 51.4785 7.65511 51.5457 8.66889 51.9066C10.6346 52.6065 11.6972 54.0418 11.9816 56.0925C12.031 56.4495 12.0201 56.4512 11.6538 56.4512C11.2652 56.4512 10.8761 56.4512 10.4875 56.4512V56.4501Z" fill="white"/>
<path d="M37.0984 54.2356C37.4458 53.7994 37.7833 53.3883 38.1573 53.0023C39.6367 51.4741 42.3958 51.5653 43.638 52.6458C44.1243 53.0684 44.4548 53.5848 44.6654 54.2236C44.73 54.1177 44.7783 54.0374 44.8271 53.9572C45.6466 52.6097 46.853 51.9317 48.4101 51.8574C49.1123 51.8241 49.8016 51.8858 50.4577 52.1566C51.9523 52.773 52.6535 53.9419 52.666 55.5236C52.6893 58.4614 52.673 61.3998 52.6785 64.3382C52.6785 64.4976 52.628 64.5369 52.4787 64.5331C52.1173 64.5233 51.7548 64.5173 51.3939 64.5347C51.1931 64.5446 51.1621 64.4709 51.1627 64.2891C51.1686 61.6329 51.1665 58.9768 51.167 56.3207C51.167 55.9199 51.1562 55.5219 51.0661 55.1283C50.8121 54.0222 50.0914 53.3681 48.968 53.2316C48.416 53.1644 47.8657 53.1677 47.3257 53.3113C45.9972 53.664 45.3063 54.5992 45.029 55.8981C44.9433 56.2994 44.9237 56.7083 44.9243 57.1183C44.9259 59.5015 44.9221 61.8852 44.9302 64.2683C44.9308 64.4801 44.8814 64.5489 44.6665 64.5347C44.3604 64.5151 44.051 64.514 43.745 64.5347C43.5149 64.5506 43.4459 64.4949 43.447 64.2459C43.4579 61.6264 43.4524 59.0063 43.4552 56.3867C43.4552 55.9489 43.4318 55.5126 43.3298 55.0868C43.0318 53.8442 42.1988 53.2141 40.8371 53.1901C38.9681 53.1568 37.7166 54.2007 37.3253 56.1138C37.2265 56.5969 37.1885 57.085 37.1885 57.5769C37.188 59.8056 37.1858 62.0342 37.1923 64.2628C37.1929 64.4654 37.1565 64.55 36.9324 64.5358C36.5991 64.5145 36.2627 64.514 35.9294 64.5358C35.7113 64.5506 35.6803 64.4681 35.6847 64.276C35.6972 63.7398 35.689 63.2026 35.689 62.6659C35.689 59.264 35.6917 55.8615 35.6836 52.4596C35.6831 52.2298 35.74 52.1642 35.9647 52.1806C36.2524 52.2019 36.5438 52.1981 36.832 52.1817C37.0371 52.1702 37.1109 52.2216 37.1044 52.4454C37.087 53.0421 37.0984 53.6394 37.0984 54.2362V54.2356Z" fill="white"/>
<path d="M66.2167 64.1906C66.1918 64.0028 66.1956 63.8074 66.2156 63.6185C66.2433 63.3586 66.1641 63.3105 65.9068 63.352C65.2789 63.4541 64.8252 63.2723 64.8317 62.431C64.8507 60.0746 64.841 57.7187 64.8334 55.3624C64.8285 53.8495 64.1045 52.7799 62.6946 52.2449C61.3242 51.7257 59.9121 51.712 58.5092 52.0702C56.6363 52.5474 55.5775 53.8457 55.4049 55.7675C55.3876 55.9596 55.4337 56.0208 55.6291 56.0099C55.9265 55.9929 56.2266 55.9908 56.524 56.0099C56.7573 56.0252 56.8377 55.9596 56.8724 55.7101C57.0406 54.4986 57.6099 53.5863 58.8565 53.2626C59.8567 53.0027 60.8624 53.0278 61.8506 53.3412C62.5963 53.5776 63.0848 54.0771 63.2584 54.8557C63.3518 55.2745 63.3795 55.6987 63.3306 56.1294C63.2769 56.6093 63.0527 56.9298 62.5914 57.1034C61.8946 57.3655 61.163 57.4075 60.4374 57.4829C59.4855 57.5812 58.5271 57.6347 57.6056 57.9246C56.1099 58.3952 55.0104 59.2442 54.8291 60.9339C54.631 62.7771 55.4728 64.2005 57.3218 64.6918C57.9404 64.8562 58.5711 64.8862 59.205 64.8529C60.6051 64.7797 61.8241 64.2889 62.7912 63.2368C63.0104 62.9982 63.1976 62.734 63.4256 62.4119C63.4299 62.9617 63.4875 63.4285 63.6557 63.8756C63.8006 64.2621 64.0741 64.5035 64.4784 64.5881C64.9652 64.6896 65.4461 64.647 65.9291 64.5439C66.1386 64.4996 66.2482 64.4303 66.2167 64.1906ZM63.2964 60.5021C63.0527 61.9898 61.8778 63.15 60.3191 63.488C59.5398 63.6572 58.7583 63.6834 57.9887 63.4377C56.6998 63.0255 56.0681 61.7796 56.4898 60.4895C56.6797 59.9081 57.0955 59.5401 57.6349 59.2879C58.4745 58.8953 59.371 58.7457 60.2779 58.6321C60.8689 58.5579 61.4632 58.5011 62.0449 58.3663C62.4927 58.262 62.9388 58.1528 63.3626 57.8274C63.335 58.7621 63.4375 59.6389 63.2964 60.5021Z" fill="white"/>
<path d="M29.7426 53.8356C29.9976 53.4867 30.205 53.1919 30.46 52.9369C31.5178 51.881 32.7948 51.5092 34.2552 51.6905C34.3838 51.7063 34.3936 51.7615 34.3936 51.8635C34.3914 52.7458 34.3881 53.6287 34.3957 54.5109C34.3974 54.6829 34.3382 54.6944 34.1901 54.6758C33.5426 54.5939 32.893 54.5486 32.2504 54.7146C31.0369 55.0274 30.4139 55.8928 30.1127 57.0497C29.9564 57.6502 29.8929 58.2656 29.8918 58.8858C29.8891 60.7328 29.8864 62.5792 29.8945 64.4262C29.8956 64.6386 29.8441 64.6976 29.6297 64.6943C28.8162 64.6806 28.0016 64.6768 27.1881 64.6954C26.9162 64.7014 26.831 64.6435 26.832 64.3498C26.8434 60.4833 26.8396 56.6167 26.8396 52.7502C26.8396 52.5411 26.8478 52.3314 26.8369 52.1223C26.8293 51.9738 26.8668 51.9176 27.0285 51.9187C27.8697 51.9269 28.7103 51.9263 29.5515 51.9187C29.71 51.9171 29.748 51.9689 29.7458 52.1202C29.7377 52.6656 29.7426 53.2115 29.7426 53.8356Z" fill="white"/>
<path d="M86.0008 64.5293C85.3827 64.5293 84.8139 64.5233 84.2452 64.5332C84.0905 64.5359 84.0487 64.4289 83.983 64.3377C82.4548 62.2199 80.9244 60.1032 79.4037 57.9799C79.2745 57.7998 79.2083 57.767 79.0303 57.9253C78.3606 58.5221 77.6773 59.1041 76.9924 59.6828C76.8627 59.7925 76.8096 59.9023 76.8106 60.0748C76.8177 61.4758 76.8106 62.8767 76.8193 64.2777C76.8204 64.4802 76.7737 64.5457 76.5664 64.5343C76.2327 64.5152 75.8973 64.5212 75.563 64.5326C75.4045 64.5381 75.3497 64.4829 75.3719 64.3312C75.3774 64.2957 75.3725 64.2585 75.3725 64.222C75.3725 58.7274 75.3741 53.2333 75.3676 47.7387C75.3676 47.4996 75.4121 47.4024 75.671 47.4231C75.9852 47.4482 76.3038 47.4368 76.6196 47.4259C76.7765 47.4204 76.8302 47.4745 76.8161 47.6284C76.8052 47.7458 76.8139 47.8648 76.8139 47.9827C76.8139 51.2667 76.8139 54.5507 76.8139 57.8342V58.1312C76.9403 58.1394 76.9859 58.0476 77.0489 57.9925C79.1714 56.1236 81.2934 54.2543 83.41 52.3789C83.5701 52.2369 83.7263 52.1741 83.9407 52.1796C84.4823 52.1938 85.025 52.1845 85.5699 52.1845C85.5867 52.2888 85.4983 52.3073 85.4511 52.3483C83.8365 53.7509 82.2214 55.1535 80.6004 56.5484C80.45 56.6778 80.424 56.7553 80.5499 56.93C82.2903 59.3421 84.021 61.7613 85.7544 64.1783C85.8272 64.2798 85.8988 64.383 86.0008 64.5283V64.5293Z" fill="white"/>
<path d="M69.4441 54.9956C69.6894 54.6183 69.8995 54.2411 70.1372 53.878C70.8997 52.7113 71.9997 52.1478 73.3549 52.0299C73.5351 52.0141 73.7163 52.0097 73.8954 51.9879C74.055 51.9682 74.1223 52.0097 74.1152 52.1888C74.1016 52.5518 74.0973 52.9171 74.1163 53.2796C74.1277 53.4991 74.0506 53.5215 73.8542 53.516C72.3954 53.4718 71.2188 54.0358 70.3532 55.2227C69.8674 55.8888 69.7041 56.6701 69.6129 57.471C69.4409 58.985 69.5266 60.5055 69.5098 62.0233C69.5017 62.7783 69.5027 63.5334 69.5125 64.2879C69.5147 64.4681 69.4859 64.5445 69.2835 64.5342C68.9226 64.5161 68.5601 64.5238 68.1986 64.532C68.0678 64.5347 68.0152 64.4938 68.0336 64.3633C68.0385 64.3278 68.0342 64.2907 68.0342 64.2541C68.0342 60.3248 68.0358 56.3954 68.0293 52.4656C68.0293 52.2483 68.0651 52.1604 68.3028 52.1789C68.6084 52.203 68.9177 52.1953 69.2243 52.1806C69.4045 52.1719 69.4501 52.2308 69.4479 52.4077C69.4387 53.1808 69.4436 53.9539 69.4441 54.727V54.995V54.9956Z" fill="white"/>
</svg>
